<svg xmlns="http://www.w3.org/2000/svg" style="display: none;">
  <defs>
    <symbol id="home" viewBox="0 0 24 24">
      <path d="M10 20v-6h4v6h5v-8h3L12 3 2 12h3v8z"/>
    </symbol>
    <symbol id="games" viewBox="0 0 24 24">
      <path d="M21,6H3A1,1 0 0,0 2,7V17A1,1 0 0,0 3,18H21A1,1 0 0,0 22,17V7A1,1 0 0,0 21,6M20,16H4V8H20V16Z"/>
    </symbol>
    <symbol id="quest" viewBox="0 0 24 24">
      <path d="M12,2A10,10 0 0,0 2,12A10,10 0 0,0 12,22A10,10 0 0,0 22,12A10,10 0 0,0 12,2M12,4A8,8 0 0,1 20,12A8,8 0 0,1 12,20A8,8 0 0,1 4,12A8,8 0 0,1 12,4M12,6A6,6 0 0,0 6,12A6,6 0 0,0 12,18A6,6 0 0,0 18,12A6,6 0 0,0 12,6Z"/>
    </symbol>
    <symbol id="progress" viewBox="0 0 24 24">
      <path d="M16,6L18.29,8.29L13.41,13.17L9.41,9.17L2,16.59L3.41,18L9.41,12L13.41,16L19.71,9.71L22,12V6H16Z"/>
    </symbol>
    <symbol id="teacher" viewBox="0 0 24 24">
      <path d="M12,3L1,9L12,15L21,10.09V17H23V9M5,13.18V17.18L12,21L19,17.18V13.18L12,17L5,13.18Z"/>
    </symbol>
    <symbol id="map" viewBox="0 0 24 24">
      <path d="M15,19L9,16.89V5L15,7.11M20.5,3C20.44,3 20.39,3 20.34,3L15,5.1L9,3L3.36,4.9C3.15,4.97 3,5.15 3,5.38V20.5A0.5,0.5 0 0,0 3.5,21C3.55,21 3.61,21 3.66,21L9,18.9L15,21L20.64,19.1C20.85,19.03 21,18.85 21,18.62V3.5A0.5,0.5 0 0,0 20.5,3Z"/>
    </symbol>
  </defs>
</svg>